<svg width="24" height="24" viewBox="0 0 24 24" fill="none" xmlns="http://www.w3.org/2000/svg">
<path d="M7.5 16.3597V21.75C7.4999 21.8828 7.53506 22.0133 7.60189 22.128C7.66873 22.2428 7.76484 22.3378 7.88041 22.4032C7.99597 22.4687 8.12684 22.5023 8.25964 22.5005C8.39244 22.4988 8.52241 22.4619 8.63625 22.3935L12 20.3745L15.3638 22.3935C15.4776 22.4619 15.6076 22.4988 15.7404 22.5005C15.8732 22.5023 16.004 22.4687 16.1196 22.4032C16.2352 22.3378 16.3313 22.2428 16.3981 22.128C16.4649 22.0133 16.5001 21.8828 16.5 21.75V16.3597C15.1459 17.1895 13.5881 17.6275 12 17.625C10.3508 17.625 8.81025 17.1622 7.5 16.3597ZM16.5 15C15.2028 15.9756 13.6231 16.5022 12 16.5C10.2591 16.5025 8.5719 15.8969 7.23 14.7877C6.37544 14.0848 5.68736 13.2011 5.2153 12.2003C4.74324 11.1995 4.49895 10.1065 4.5 9C4.5 4.85775 7.85775 1.5 12 1.5C16.1423 1.5 19.5 4.85775 19.5 9C19.5006 10.1644 19.2298 11.313 18.709 12.3545C18.1882 13.396 17.4319 14.3018 16.5 15Z" fill="white"/>
</svg>
