<svg width="24" height="24" viewBox="0 0 24 24" fill="none" xmlns="http://www.w3.org/2000/svg">
<path d="M16 2H4C3.73478 2 3.48043 2.10536 3.29289 2.29289C3.10536 2.48043 3 2.73478 3 3V21C3 21.2652 3.10536 21.5196 3.29289 21.7071C3.48043 21.8946 3.73478 22 4 22H12.255C11.3723 20.7335 10.933 19.2107 11.0056 17.6686C11.0781 16.1265 11.6584 14.6517 12.6561 13.4736C13.6538 12.2956 15.0129 11.4804 16.522 11.1549C18.0311 10.8294 19.6054 11.0119 21 11.674V7L16 2ZM13.786 15.327C13.825 14.6 14.386 14.008 15.11 13.931L15.98 13.839C16.0837 13.8278 16.1812 13.7844 16.259 13.715L16.91 13.13C17.172 12.8939 17.5097 12.7591 17.8623 12.75C18.2148 12.7408 18.5591 12.8578 18.833 13.08L19.515 13.63C19.595 13.695 19.695 13.733 19.799 13.739L20.673 13.786C21.4 13.825 21.992 14.386 22.069 15.11L22.161 15.98C22.1722 16.0837 22.2156 16.1812 22.285 16.259L22.87 16.91C23.357 17.452 23.378 18.267 22.92 18.833L22.37 19.515C22.3051 19.596 22.267 19.6953 22.261 19.799L22.214 20.673C22.1959 21.0253 22.0525 21.3595 21.8098 21.6155C21.567 21.8715 21.2408 22.0323 20.89 22.069L20.02 22.161C19.9163 22.1722 19.8188 22.2156 19.741 22.285L19.09 22.87C18.828 23.1061 18.4903 23.2409 18.1377 23.25C17.7852 23.2592 17.4409 23.1422 17.167 22.92L16.485 22.37C16.404 22.3051 16.3047 22.267 16.201 22.261L15.327 22.214C14.9747 22.1959 14.6405 22.0525 14.3845 21.8098C14.1285 21.567 13.9677 21.2408 13.931 20.89L13.839 20.02C13.8278 19.9163 13.7844 19.8188 13.715 19.741L13.13 19.09C12.8939 18.828 12.7591 18.4903 12.75 18.1377C12.7408 17.7852 12.8578 17.4409 13.08 17.167L13.63 16.485C13.6949 16.404 13.733 16.3047 13.739 16.201L13.786 15.327ZM21.03 17.03L19.97 15.97L17.5 18.44L16.03 16.97L14.97 18.03L16.97 20.03L17.5 20.56L18.03 20.03L21.03 17.03Z" fill="white"/>
</svg>
