<svg width="48" height="48" viewBox="0 0 48 48" fill="none" xmlns="http://www.w3.org/2000/svg">
<rect width="48" height="48" rx="4" fill="white" fill-opacity="0.1"/>
<g clip-path="url(#clip0_533_497)">
<path fill-rule="evenodd" clip-rule="evenodd" d="M17.25 22.055V20C17.25 18.2098 17.9612 16.4929 19.227 15.227C20.4929 13.9612 22.2098 13.25 24 13.25C25.7902 13.25 27.5071 13.9612 28.773 15.227C30.0388 16.4929 30.75 18.2098 30.75 20V22.055C31.865 22.138 32.59 22.348 33.121 22.879C34 23.757 34 25.172 34 28C34 30.828 34 32.243 33.121 33.121C32.243 34 30.828 34 28 34H20C17.172 34 15.757 34 14.879 33.121C14 32.243 14 30.828 14 28C14 25.172 14 23.757 14.879 22.879C15.409 22.348 16.135 22.138 17.25 22.055ZM18.75 20C18.75 18.6076 19.3031 17.2723 20.2877 16.2877C21.2723 15.3031 22.6076 14.75 24 14.75C25.3924 14.75 26.7277 15.3031 27.7123 16.2877C28.6969 17.2723 29.25 18.6076 29.25 20V22.004C28.8673 22.0007 28.4507 21.9993 28 22H20C19.5487 21.9993 19.132 22.0007 18.75 22.004V20Z" fill="#FF0000"/>
</g>
<defs>
<clipPath id="clip0_533_497">
<rect width="24" height="24" fill="white" transform="translate(12 12)"/>
</clipPath>
</defs>
</svg>
