<svg width="24" height="24" viewBox="0 0 24 24" fill="none" xmlns="http://www.w3.org/2000/svg">
<path fill-rule="evenodd" clip-rule="evenodd" d="M5.25 10.055V8C5.25 6.20979 5.96116 4.4929 7.22703 3.22703C8.4929 1.96116 10.2098 1.25 12 1.25C13.7902 1.25 15.5071 1.96116 16.773 3.22703C18.0388 4.4929 18.75 6.20979 18.75 8V10.055C19.865 10.138 20.59 10.348 21.121 10.879C22 11.757 22 13.172 22 16C22 18.828 22 20.243 21.121 21.121C20.243 22 18.828 22 16 22H8C5.172 22 3.757 22 2.879 21.121C2 20.243 2 18.828 2 16C2 13.172 2 11.757 2.879 10.879C3.409 10.348 4.135 10.138 5.25 10.055ZM6.75 8C6.75 6.60761 7.30312 5.27225 8.28769 4.28769C9.27225 3.30312 10.6076 2.75 12 2.75C13.3924 2.75 14.7277 3.30312 15.7123 4.28769C16.6969 5.27225 17.25 6.60761 17.25 8V10.004C16.8673 10.0007 16.4507 9.99933 16 10H8C7.54867 9.99933 7.132 10.0007 6.75 10.004V8Z" fill="#FF0000"/>
</svg>
