<svg width="24" height="24" viewBox="0 0 24 24" fill="none" xmlns="http://www.w3.org/2000/svg">
<path fill-rule="evenodd" clip-rule="evenodd" d="M3.378 5.082C3 5.62 3 7.22 3 10.417V11.991C3 17.629 7.239 20.366 9.899 21.527C10.62 21.842 10.981 22 12 22C13.02 22 13.38 21.842 14.101 21.527C16.761 20.365 21 17.63 21 11.991V10.417C21 7.219 21 5.62 20.622 5.082C20.245 4.545 18.742 4.03 15.735 3.001L15.162 2.805C13.595 2.268 12.812 2 12 2C11.188 2 10.405 2.268 8.838 2.805L8.265 3C5.258 4.03 3.755 4.545 3.378 5.082ZM15.06 10.5C15.1256 10.4265 15.1761 10.3407 15.2085 10.2477C15.241 10.1546 15.2548 10.0561 15.2492 9.95772C15.2436 9.85934 15.2186 9.76302 15.1758 9.67428C15.1329 9.58553 15.073 9.5061 14.9995 9.4405C14.926 9.37491 14.8402 9.32444 14.7472 9.29198C14.6541 9.25952 14.5556 9.2457 14.4572 9.25132C14.3588 9.25694 14.2625 9.28188 14.1738 9.32472C14.085 9.36756 14.0056 9.42746 13.94 9.501L10.929 12.875L10.059 11.901C9.92604 11.7541 9.74033 11.6657 9.54245 11.6553C9.34457 11.6448 9.15059 11.7131 9.0029 11.8452C8.8552 11.9773 8.76579 12.1625 8.75419 12.3604C8.74259 12.5582 8.80975 12.7525 8.941 12.901L10.369 14.501C10.4394 14.5798 10.5256 14.6429 10.622 14.686C10.7184 14.7292 10.8229 14.7515 10.9285 14.7515C11.0341 14.7515 11.1386 14.7292 11.235 14.686C11.3314 14.6429 11.4176 14.5798 11.488 14.501L15.06 10.5Z" fill="#FF0000"/>
</svg>
