<svg width="48" height="48" viewBox="0 0 48 48" fill="none" xmlns="http://www.w3.org/2000/svg">
<rect width="48" height="48" rx="4" fill="#FF0000" fill-opacity="0.05"/>
<g clip-path="url(#clip0_542_987)">
<path fill-rule="evenodd" clip-rule="evenodd" d="M15.378 17.082C15 17.62 15 19.22 15 22.417V23.991C15 29.629 19.239 32.366 21.899 33.527C22.62 33.842 22.981 34 24 34C25.02 34 25.38 33.842 26.101 33.527C28.761 32.365 33 29.63 33 23.991V22.417C33 19.219 33 17.62 32.622 17.082C32.245 16.545 30.742 16.03 27.735 15.001L27.162 14.805C25.595 14.268 24.812 14 24 14C23.188 14 22.405 14.268 20.838 14.805L20.265 15C17.258 16.03 15.755 16.545 15.378 17.082ZM27.06 22.5C27.1256 22.4265 27.1761 22.3407 27.2085 22.2477C27.241 22.1546 27.2548 22.0561 27.2492 21.9577C27.2436 21.8593 27.2186 21.763 27.1758 21.6743C27.1329 21.5855 27.073 21.5061 26.9995 21.4405C26.926 21.3749 26.8402 21.3244 26.7472 21.292C26.6541 21.2595 26.5556 21.2457 26.4572 21.2513C26.3588 21.2569 26.2625 21.2819 26.1738 21.3247C26.085 21.3676 26.0056 21.4275 25.94 21.501L22.929 24.875L22.059 23.901C21.926 23.7541 21.7403 23.6657 21.5424 23.6553C21.3446 23.6448 21.1506 23.7131 21.0029 23.8452C20.8552 23.9773 20.7658 24.1625 20.7542 24.3604C20.7426 24.5582 20.8098 24.7525 20.941 24.901L22.369 26.501C22.4394 26.5798 22.5256 26.6429 22.622 26.686C22.7184 26.7292 22.8229 26.7515 22.9285 26.7515C23.0341 26.7515 23.1386 26.7292 23.235 26.686C23.3314 26.6429 23.4176 26.5798 23.488 26.501L27.06 22.5Z" fill="#FF0000"/>
</g>
<defs>
<clipPath id="clip0_542_987">
<rect width="24" height="24" fill="white" transform="translate(12 12)"/>
</clipPath>
</defs>
</svg>
