<svg width="48" height="48" viewBox="0 0 48 48" fill="none" xmlns="http://www.w3.org/2000/svg">
<rect width="48" height="48" rx="4" fill="white" fill-opacity="0.1"/>
<g clip-path="url(#clip0_533_480)">
<path d="M19.5 28.3597V33.75C19.4999 33.8828 19.5351 34.0133 19.6019 34.128C19.6687 34.2428 19.7648 34.3378 19.8804 34.4032C19.996 34.4687 20.1268 34.5023 20.2596 34.5005C20.3924 34.4988 20.5224 34.4619 20.6363 34.3935L24 32.3745L27.3638 34.3935C27.4776 34.4619 27.6076 34.4988 27.7404 34.5005C27.8732 34.5023 28.004 34.4687 28.1196 34.4032C28.2352 34.3378 28.3313 34.2428 28.3981 34.128C28.4649 34.0133 28.5001 33.8828 28.5 33.75V28.3597C27.1459 29.1895 25.5881 29.6275 24 29.625C22.3508 29.625 20.8103 29.1622 19.5 28.3597ZM28.5 27C27.2028 27.9756 25.6231 28.5022 24 28.5C22.2591 28.5025 20.5719 27.8969 19.23 26.7877C18.3754 26.0848 17.6874 25.2011 17.2153 24.2003C16.7432 23.1995 16.4989 22.1065 16.5 21C16.5 16.8578 19.8578 13.5 24 13.5C28.1423 13.5 31.5 16.8578 31.5 21C31.5006 22.1644 31.2298 23.313 30.709 24.3545C30.1882 25.396 29.4319 26.3018 28.5 27Z" fill="#FF0000"/>
</g>
<defs>
<clipPath id="clip0_533_480">
<rect width="24" height="24" fill="white" transform="translate(12 12)"/>
</clipPath>
</defs>
</svg>
