<svg width="48" height="48" viewBox="0 0 48 48" fill="none" xmlns="http://www.w3.org/2000/svg">
<rect width="48" height="48" rx="4" fill="white" fill-opacity="0.1"/>
<g clip-path="url(#clip0_533_464)">
<path d="M14.3003 32.28L23.9003 22.68L22.5003 21.26L21.7803 21.97C21.6878 22.0627 21.5779 22.1363 21.4569 22.1865C21.336 22.2366 21.2063 22.2625 21.0753 22.2625C20.9443 22.2625 20.8147 22.2366 20.6937 22.1865C20.5727 22.1363 20.4628 22.0627 20.3703 21.97L19.6603 21.26C19.5676 21.1675 19.4941 21.0576 19.4439 20.9367C19.3937 20.8157 19.3679 20.686 19.3679 20.555C19.3679 20.4241 19.3937 20.2944 19.4439 20.1734C19.4941 20.0524 19.5676 19.9425 19.6603 19.85L25.3203 14.19C25.4128 14.0973 25.5227 14.0238 25.6437 13.9736C25.7647 13.9234 25.8943 13.8976 26.0253 13.8976C26.1563 13.8976 26.286 13.9234 26.4069 13.9736C26.5279 14.0238 26.6378 14.0973 26.7303 14.19L27.4403 14.9C27.8303 15.29 27.8303 15.92 27.4403 16.31L26.7303 17L28.1503 18.43C28.2428 18.3373 28.3527 18.2638 28.4737 18.2136C28.5947 18.1634 28.7243 18.1376 28.8553 18.1376C28.9863 18.1376 29.116 18.1634 29.2369 18.2136C29.3579 18.2638 29.4678 18.3373 29.5603 18.43C29.9503 18.82 29.9503 19.46 29.5603 19.85L30.9703 21.26L31.6803 20.55C32.0703 20.16 32.7103 20.16 33.1003 20.55L33.8003 21.26C34.1903 21.65 34.1903 22.29 33.8003 22.68L28.1503 28.33C27.7603 28.72 27.1203 28.72 26.7303 28.33L26.0303 27.63C25.9354 27.5378 25.8599 27.4274 25.8083 27.3054C25.7568 27.1835 25.7302 27.0524 25.7302 26.92C25.7302 26.7876 25.7568 26.6566 25.8083 26.5346C25.8599 26.4127 25.9354 26.3023 26.0303 26.21L26.7303 25.5L25.3203 24.09L15.7103 33.7C15.6178 33.7927 15.5079 33.8663 15.3869 33.9165C15.266 33.9666 15.1363 33.9925 15.0053 33.9925C14.8743 33.9925 14.7447 33.9666 14.6237 33.9165C14.5027 33.8663 14.3928 33.7927 14.3003 33.7C13.9103 33.31 13.9103 32.67 14.3003 32.28ZM32.0003 31C32.5307 31 33.0395 31.2107 33.4145 31.5858C33.7896 31.9609 34.0003 32.4696 34.0003 33V34H24.0003V33C24.0003 32.4696 24.211 31.9609 24.5861 31.5858C24.9612 31.2107 25.4699 31 26.0003 31H32.0003Z" fill="#FF0000"/>
</g>
<defs>
<clipPath id="clip0_533_464">
<rect width="24" height="24" fill="white" transform="translate(12 12)"/>
</clipPath>
</defs>
</svg>
