<svg width="24" height="24" viewBox="0 0 24 24" fill="none" xmlns="http://www.w3.org/2000/svg">
<path fill-rule="evenodd" clip-rule="evenodd" d="M11.4454 4.26495C11.4018 4.188 11.3385 4.124 11.2621 4.07947C11.1857 4.03494 11.0988 4.01147 11.0104 4.01147C10.9219 4.01147 10.8351 4.03494 10.7587 4.07947C10.6822 4.124 10.619 4.188 10.5754 4.26495L2.06039 19.2529C2.0172 19.329 1.9947 19.4149 1.99512 19.5024C1.99554 19.5898 2.01887 19.6755 2.06279 19.7511C2.1067 19.8267 2.16966 19.8895 2.24539 19.9331C2.32112 19.9768 2.40697 19.9998 2.49439 19.9999H19.5264C19.6139 20 19.6999 19.9771 19.7757 19.9335C19.8516 19.8899 19.9147 19.8272 19.9587 19.7516C20.0028 19.6759 20.0262 19.5901 20.0266 19.5026C20.0271 19.4151 20.0046 19.329 19.9614 19.2529L17.6914 15.2579C16.8707 15.3509 16.0409 15.2009 15.3048 14.8263C14.5687 14.4518 13.9588 13.8693 13.5509 13.1512C13.1429 12.4331 12.9549 11.611 13.0101 10.787C13.0653 9.96291 13.3613 9.17323 13.8614 8.51595L11.4454 4.26495ZM10.2504 11.2499C10.2504 11.051 10.3294 10.8603 10.4701 10.7196C10.6107 10.579 10.8015 10.4999 11.0004 10.4999C11.1993 10.4999 11.3901 10.579 11.5307 10.7196C11.6714 10.8603 11.7504 11.051 11.7504 11.2499V13.7499C11.7504 13.9489 11.6714 14.1396 11.5307 14.2803C11.3901 14.4209 11.1993 14.4999 11.0004 14.4999C10.8015 14.4999 10.6107 14.4209 10.4701 14.2803C10.3294 14.1396 10.2504 13.9489 10.2504 13.7499V11.2499ZM11.7504 15.4999V16.9999H10.2504V15.4999H11.7504Z" fill="#FF0000"/>
<path fill-rule="evenodd" clip-rule="evenodd" d="M14.414 9.49001C14.1417 9.972 13.999 10.5164 14 11.07C13.9986 11.6275 14.1424 12.1758 14.4171 12.6609C14.6919 13.146 15.0881 13.5512 15.567 13.8368C16.0458 14.1223 16.5907 14.2783 17.1481 14.2894C17.7055 14.3004 18.2562 14.1663 18.746 13.9L20.701 15.854L22.001 14.554L20.045 12.599C20.4573 11.8523 20.5561 10.9724 20.3196 10.1528C20.0831 9.33331 19.5307 8.64129 18.784 8.22901C18.0373 7.81673 17.1574 7.71797 16.3378 7.95445C15.5183 8.19094 14.8263 8.74329 14.414 9.49001ZM18.594 11.07C18.594 11.4355 18.4488 11.786 18.1904 12.0444C17.932 12.3028 17.5815 12.448 17.216 12.448C16.8505 12.448 16.5 12.3028 16.2416 12.0444C15.9832 11.786 15.838 11.4355 15.838 11.07C15.838 10.7045 15.9832 10.354 16.2416 10.0956C16.5 9.83719 16.8505 9.69201 17.216 9.69201C17.5815 9.69201 17.932 9.83719 18.1904 10.0956C18.4488 10.354 18.594 10.7045 18.594 11.07Z" fill="#FF0000"/>
</svg>
