<svg width="24" height="24" viewBox="0 0 24 24" fill="none" xmlns="http://www.w3.org/2000/svg">
<path d="M2.30031 20.2799L11.9003 10.6799L10.5003 9.25991L9.78031 9.9699C9.6878 10.0626 9.57791 10.1362 9.45694 10.1863C9.33596 10.2365 9.20628 10.2623 9.07531 10.2623C8.94434 10.2623 8.81466 10.2365 8.69369 10.1863C8.57271 10.1362 8.46283 10.0626 8.37031 9.9699L7.66031 9.25991C7.56761 9.16739 7.49406 9.0575 7.44388 8.93653C7.3937 8.81556 7.36787 8.68587 7.36787 8.55491C7.36787 8.42394 7.3937 8.29425 7.44388 8.17328C7.49406 8.05231 7.56761 7.94242 7.66031 7.84991L13.3203 2.18991C13.4128 2.0972 13.5227 2.02365 13.6437 1.97347C13.7647 1.92329 13.8943 1.89746 14.0253 1.89746C14.1563 1.89746 14.286 1.92329 14.4069 1.97347C14.5279 2.02365 14.6378 2.0972 14.7303 2.18991L15.4403 2.89991C15.8303 3.28991 15.8303 3.91991 15.4403 4.30991L14.7303 4.99991L16.1503 6.4299C16.2428 6.3372 16.3527 6.26365 16.4737 6.21347C16.5947 6.16329 16.7243 6.13746 16.8553 6.13746C16.9863 6.13746 17.116 6.16329 17.2369 6.21347C17.3579 6.26365 17.4678 6.3372 17.5603 6.4299C17.9503 6.8199 17.9503 7.45991 17.5603 7.84991L18.9703 9.25991L19.6803 8.54991C20.0703 8.15991 20.7103 8.15991 21.1003 8.54991L21.8003 9.25991C22.1903 9.64991 22.1903 10.2899 21.8003 10.6799L16.1503 16.3299C15.7603 16.7199 15.1203 16.7199 14.7303 16.3299L14.0303 15.6299C13.9354 15.5376 13.8599 15.4273 13.8083 15.3053C13.7568 15.1834 13.7302 15.0523 13.7302 14.9199C13.7302 14.7875 13.7568 14.6565 13.8083 14.5345C13.8599 14.4125 13.9354 14.3022 14.0303 14.2099L14.7303 13.4999L13.3203 12.0899L3.71031 21.6999C3.6178 21.7926 3.50791 21.8662 3.38694 21.9163C3.26596 21.9665 3.13628 21.9923 3.00531 21.9923C2.87434 21.9923 2.74466 21.9665 2.62369 21.9163C2.50271 21.8662 2.39283 21.7926 2.30031 21.6999C1.91031 21.3099 1.91031 20.6699 2.30031 20.2799ZM20.0003 18.9999C20.5307 18.9999 21.0395 19.2106 21.4145 19.5857C21.7896 19.9608 22.0003 20.4695 22.0003 20.9999V21.9999H12.0003V20.9999C12.0003 20.4695 12.211 19.9608 12.5861 19.5857C12.9612 19.2106 13.4699 18.9999 14.0003 18.9999H20.0003Z" fill="#FF0000"/>
</svg>
