<svg width="48" height="48" viewBox="0 0 48 48" fill="none" xmlns="http://www.w3.org/2000/svg">
<rect width="48" height="48" rx="4" fill="#FF0000" fill-opacity="0.05"/>
<g clip-path="url(#clip0_542_1003)">
<path d="M14.3003 32.2799L23.9003 22.6799L22.5003 21.2599L21.7803 21.9699C21.6878 22.0626 21.5779 22.1362 21.4569 22.1863C21.336 22.2365 21.2063 22.2623 21.0753 22.2623C20.9443 22.2623 20.8147 22.2365 20.6937 22.1863C20.5727 22.1362 20.4628 22.0626 20.3703 21.9699L19.6603 21.2599C19.5676 21.1674 19.4941 21.0575 19.4439 20.9365C19.3937 20.8156 19.3679 20.6859 19.3679 20.5549C19.3679 20.4239 19.3937 20.2943 19.4439 20.1733C19.4941 20.0523 19.5676 19.9424 19.6603 19.8499L25.3203 14.1899C25.4128 14.0972 25.5227 14.0237 25.6437 13.9735C25.7647 13.9233 25.8943 13.8975 26.0253 13.8975C26.1563 13.8975 26.286 13.9233 26.4069 13.9735C26.5279 14.0237 26.6378 14.0972 26.7303 14.1899L27.4403 14.8999C27.8303 15.2899 27.8303 15.9199 27.4403 16.3099L26.7303 16.9999L28.1503 18.4299C28.2428 18.3372 28.3527 18.2637 28.4737 18.2135C28.5947 18.1633 28.7243 18.1375 28.8553 18.1375C28.9863 18.1375 29.116 18.1633 29.2369 18.2135C29.3579 18.2637 29.4678 18.3372 29.5603 18.4299C29.9503 18.8199 29.9503 19.4599 29.5603 19.8499L30.9703 21.2599L31.6803 20.5499C32.0703 20.1599 32.7103 20.1599 33.1003 20.5499L33.8003 21.2599C34.1903 21.6499 34.1903 22.2899 33.8003 22.6799L28.1503 28.3299C27.7603 28.7199 27.1203 28.7199 26.7303 28.3299L26.0303 27.6299C25.9354 27.5376 25.8599 27.4273 25.8083 27.3053C25.7568 27.1834 25.7302 27.0523 25.7302 26.9199C25.7302 26.7875 25.7568 26.6565 25.8083 26.5345C25.8599 26.4125 25.9354 26.3022 26.0303 26.2099L26.7303 25.4999L25.3203 24.0899L15.7103 33.6999C15.6178 33.7926 15.5079 33.8662 15.3869 33.9163C15.266 33.9665 15.1363 33.9923 15.0053 33.9923C14.8743 33.9923 14.7447 33.9665 14.6237 33.9163C14.5027 33.8662 14.3928 33.7926 14.3003 33.6999C13.9103 33.3099 13.9103 32.6699 14.3003 32.2799ZM32.0003 30.9999C32.5307 30.9999 33.0395 31.2106 33.4145 31.5857C33.7896 31.9608 34.0003 32.4695 34.0003 32.9999V33.9999H24.0003V32.9999C24.0003 32.4695 24.211 31.9608 24.5861 31.5857C24.9612 31.2106 25.4699 30.9999 26.0003 30.9999H32.0003Z" fill="#FF0000"/>
</g>
<defs>
<clipPath id="clip0_542_1003">
<rect width="24" height="24" fill="white" transform="translate(12 12)"/>
</clipPath>
</defs>
</svg>
