<svg width="24" height="24" viewBox="0 0 24 24" fill="none" xmlns="http://www.w3.org/2000/svg">
<path d="M4 11.1V6.37502C4 5.95836 4.121 5.58336 4.363 5.25002C4.605 4.91669 4.91733 4.67502 5.3 4.52502L11.3 2.27502C11.5333 2.19169 11.7667 2.15002 12 2.15002C12.2333 2.15002 12.4667 2.19169 12.7 2.27502L18.7 4.52502C19.0833 4.67502 19.396 4.91669 19.638 5.25002C19.88 5.58336 20.0007 5.95836 20 6.37502V10C19.45 10 18.9793 10.196 18.588 10.588C18.1967 10.98 18.0007 11.4507 18 12V16.6L15.45 14.05C15.6333 13.7334 15.771 13.4044 15.863 13.063C15.955 12.7217 16.0007 12.3674 16 12C16 10.9 15.6083 9.95836 14.825 9.17502C14.0417 8.39169 13.1 8.00002 12 8.00002C10.9 8.00002 9.95833 8.39169 9.175 9.17502C8.39167 9.95836 8 10.9 8 12C8 13.1 8.39167 14.0417 9.175 14.825C9.95833 15.6084 10.9 16 12 16C12.35 16 12.696 15.9544 13.038 15.863C13.38 15.7717 13.7007 15.634 14 15.45L17.2 18.65C16.55 19.3667 15.8917 19.9794 15.225 20.488C14.5583 20.9967 13.7833 21.409 12.9 21.725C12.75 21.775 12.6 21.8127 12.45 21.838C12.3 21.8634 12.15 21.8757 12 21.875C11.85 21.8744 11.696 21.862 11.538 21.838C11.38 21.814 11.2257 21.7764 11.075 21.725C8.99167 20.975 7.29167 19.6084 5.975 17.625C4.65833 15.6417 4 13.4667 4 11.1ZM13.413 13.413C13.8043 13.021 14 12.55 14 12C14 11.45 13.8043 10.9794 13.413 10.588C13.0217 10.1967 12.5507 10.0007 12 10C11.4493 9.99936 10.9787 10.1954 10.588 10.588C10.1973 10.9807 10.0013 11.4514 10 12C9.99867 12.5487 10.1947 13.0197 10.588 13.413C10.9813 13.8064 11.452 14.002 12 14C12.548 13.998 13.019 13.8024 13.413 13.413ZM20.287 21.713C20.0957 21.521 20 21.2834 20 21C20 20.7167 20.096 20.4794 20.288 20.288C20.48 20.0967 20.7173 20.0007 21 20C21.2827 19.9994 21.5203 20.0954 21.713 20.288C21.9057 20.4807 22.0013 20.718 22 21C21.9987 21.282 21.9027 21.5197 21.712 21.713C21.5213 21.9064 21.284 22.002 21 22C20.716 21.998 20.4787 21.902 20.288 21.712M20 17V13C20 12.7167 20.096 12.4794 20.288 12.288C20.48 12.0967 20.7173 12.0007 21 12C21.2827 11.9994 21.5203 12.0954 21.713 12.288C21.9057 12.4807 22.0013 12.718 22 13V17C22 17.2834 21.904 17.521 21.712 17.713C21.52 17.905 21.2827 18.0007 21 18C20.7173 17.9994 20.48 17.9034 20.288 17.712C20.096 17.5207 20 17.2834 20 17Z" fill="#FF0000"/>
</svg>
