<svg width="48" height="48" viewBox="0 0 48 48" fill="none" xmlns="http://www.w3.org/2000/svg">
<rect width="48" height="48" rx="4" fill="#FF0000" fill-opacity="0.05"/>
<g clip-path="url(#clip0_542_971)">
<path d="M20.1 33.213C18.8833 32.6877 17.825 31.975 16.925 31.075C16.025 30.175 15.3127 29.1167 14.788 27.9C14.2633 26.6833 14.0007 25.3833 14 24C13.9993 22.6167 14.262 21.3167 14.788 20.1C15.314 18.8833 16.0263 17.825 16.925 16.925C17.8237 16.025 18.882 15.3127 20.1 14.788C21.318 14.2633 22.618 14.0007 24 14C25.382 13.9993 26.682 14.262 27.9 14.788C29.118 15.314 30.1763 16.0263 31.075 16.925C31.9737 17.8237 32.6863 18.882 33.213 20.1C33.7397 21.318 34.002 22.618 34 24C33.998 25.382 33.7353 26.682 33.212 27.9C32.6887 29.118 31.9763 30.1763 31.075 31.075C30.1737 31.9737 29.1153 32.6863 27.9 33.213C26.6847 33.7397 25.3847 34.002 24 34C22.6153 33.998 21.3153 33.7363 20.1 33.213ZM29.675 29.675C31.225 28.125 32 26.2333 32 24C32 21.7667 31.225 19.875 29.675 18.325C28.125 16.775 26.2333 16 24 16C21.7667 16 19.875 16.775 18.325 18.325C16.775 19.875 16 21.7667 16 24C16 26.2333 16.775 28.125 18.325 29.675C19.875 31.225 21.7667 32 24 32C26.2333 32 28.125 31.225 29.675 29.675ZM19.75 28.25C18.5833 27.0833 18 25.6667 18 24C18 22.3333 18.5833 20.9167 19.75 19.75C20.9167 18.5833 22.3333 18 24 18C25.6667 18 27.0833 18.5833 28.25 19.75C29.4167 20.9167 30 22.3333 30 24C30 25.6667 29.4167 27.0833 28.25 28.25C27.0833 29.4167 25.6667 30 24 30C22.3333 30 20.9167 29.4167 19.75 28.25ZM26.825 26.825C27.6083 26.0417 28 25.1 28 24C28 22.9 27.6083 21.9583 26.825 21.175C26.0417 20.3917 25.1 20 24 20C22.9 20 21.9583 20.3917 21.175 21.175C20.3917 21.9583 20 22.9 20 24C20 25.1 20.3917 26.0417 21.175 26.825C21.9583 27.6083 22.9 28 24 28C25.1 28 26.0417 27.6083 26.825 26.825ZM22.588 25.413C22.196 25.021 22 24.55 22 24C22 23.45 22.196 22.9793 22.588 22.588C22.98 22.1967 23.4507 22.0007 24 22C24.5493 21.9993 25.0203 22.1953 25.413 22.588C25.8057 22.9807 26.0013 23.4513 26 24C25.9987 24.5487 25.803 25.0197 25.413 25.413C25.023 25.8063 24.552 26.002 24 26C23.448 25.998 22.9773 25.8023 22.588 25.413Z" fill="#FF0000"/>
</g>
<defs>
<clipPath id="clip0_542_971">
<rect width="24" height="24" fill="white" transform="translate(12 12)"/>
</clipPath>
</defs>
</svg>
