<svg width="24" height="24" viewBox="0 0 24 24" fill="none" xmlns="http://www.w3.org/2000/svg">
<path d="M8.1 21.213C6.88334 20.6877 5.825 19.975 4.925 19.075C4.025 18.175 3.31267 17.1167 2.788 15.9C2.26333 14.6833 2.00067 13.3833 2 12C1.99933 10.6167 2.262 9.31667 2.788 8.1C3.314 6.88334 4.02633 5.825 4.925 4.925C5.82367 4.025 6.882 3.31267 8.1 2.788C9.318 2.26333 10.618 2.00067 12 2C13.382 1.99933 14.682 2.262 15.9 2.788C17.118 3.314 18.1763 4.02633 19.075 4.925C19.9737 5.82367 20.6863 6.882 21.213 8.1C21.7397 9.318 22.002 10.618 22 12C21.998 13.382 21.7353 14.682 21.212 15.9C20.6887 17.118 19.9763 18.1763 19.075 19.075C18.1737 19.9737 17.1153 20.6863 15.9 21.213C14.6847 21.7397 13.3847 22.002 12 22C10.6153 21.998 9.31534 21.7363 8.1 21.213ZM17.675 17.675C19.225 16.125 20 14.2333 20 12C20 9.76667 19.225 7.875 17.675 6.325C16.125 4.775 14.2333 4 12 4C9.76667 4 7.875 4.775 6.325 6.325C4.775 7.875 4 9.76667 4 12C4 14.2333 4.775 16.125 6.325 17.675C7.875 19.225 9.76667 20 12 20C14.2333 20 16.125 19.225 17.675 17.675ZM7.75 16.25C6.58333 15.0833 6 13.6667 6 12C6 10.3333 6.58333 8.91667 7.75 7.75C8.91667 6.58333 10.3333 6 12 6C13.6667 6 15.0833 6.58333 16.25 7.75C17.4167 8.91667 18 10.3333 18 12C18 13.6667 17.4167 15.0833 16.25 16.25C15.0833 17.4167 13.6667 18 12 18C10.3333 18 8.91667 17.4167 7.75 16.25ZM14.825 14.825C15.6083 14.0417 16 13.1 16 12C16 10.9 15.6083 9.95833 14.825 9.175C14.0417 8.39167 13.1 8 12 8C10.9 8 9.95833 8.39167 9.175 9.175C8.39167 9.95833 8 10.9 8 12C8 13.1 8.39167 14.0417 9.175 14.825C9.95833 15.6083 10.9 16 12 16C13.1 16 14.0417 15.6083 14.825 14.825ZM10.588 13.413C10.196 13.021 10 12.55 10 12C10 11.45 10.196 10.9793 10.588 10.588C10.98 10.1967 11.4507 10.0007 12 10C12.5493 9.99933 13.0203 10.1953 13.413 10.588C13.8057 10.9807 14.0013 11.4513 14 12C13.9987 12.5487 13.803 13.0197 13.413 13.413C13.023 13.8063 12.552 14.002 12 14C11.448 13.998 10.9773 13.8023 10.588 13.413Z" fill="#FF0000"/>
</svg>
