<svg width="24" height="24" viewBox="0 0 24 24" fill="none" xmlns="http://www.w3.org/2000/svg">
<path d="M20.8722 5.05009C20.5244 4.56907 20.0338 4.21003 19.4702 4.02409L14.6692 2.42409C12.9282 1.85929 11.0532 1.85929 9.31216 2.42409L4.51216 4.02409C3.95107 4.21133 3.46305 4.57025 3.11716 5.05009C2.76815 5.53204 2.58053 6.11204 2.58116 6.70709V11.8651C2.57385 13.3072 2.93484 14.7272 3.62994 15.9907C4.32504 17.2542 5.33122 18.3193 6.55316 19.0851L10.5072 21.5711C10.9558 21.852 11.4744 22.0009 12.0037 22.0009C12.533 22.0009 13.0516 21.852 13.5002 21.5711L17.4542 19.0861C18.6678 18.3233 19.668 17.2651 20.3612 16.0103C21.0543 14.7556 21.4176 13.3455 21.4172 11.9121V6.75409C21.425 6.14188 21.2343 5.54376 20.8722 5.05009ZM12.9362 12.3361V14.6051C12.9362 14.8548 12.837 15.0943 12.6604 15.2708C12.4838 15.4474 12.2444 15.5466 11.9947 15.5466C11.745 15.5466 11.5055 15.4474 11.3289 15.2708C11.1524 15.0943 11.0532 14.8548 11.0532 14.6051V12.3361C10.3806 12.1125 9.80963 11.6568 9.44242 11.0506C9.07521 10.4444 8.93575 9.72727 9.04902 9.02764C9.16228 8.328 9.52087 7.69152 10.0606 7.23215C10.6003 6.77278 11.2859 6.52052 11.9947 6.52052C12.7034 6.52052 13.389 6.77278 13.9287 7.23215C14.4685 7.69152 14.827 8.328 14.9403 9.02764C15.0536 9.72727 14.9141 10.4444 14.5469 11.0506C14.1797 11.6568 13.6087 12.1125 12.9362 12.3361Z" fill="white"/>
<path d="M13.1014 9.50188C13.1014 9.79388 12.9854 10.0739 12.7789 10.2804C12.5725 10.4869 12.2924 10.6029 12.0004 10.6029C11.7084 10.6029 11.4284 10.4869 11.2219 10.2804C11.0154 10.0739 10.8994 9.79388 10.8994 9.50188C10.8994 9.20988 11.0154 8.92983 11.2219 8.72335C11.4284 8.51688 11.7084 8.40088 12.0004 8.40088C12.2924 8.40088 12.5725 8.51688 12.7789 8.72335C12.9854 8.92983 13.1014 9.20988 13.1014 9.50188Z" fill="white"/>
</svg>
