<svg width="24" height="24" viewBox="0 0 24 24" fill="none" xmlns="http://www.w3.org/2000/svg">
<path fill-rule="evenodd" clip-rule="evenodd" d="M10.4468 3C7.43792 3 4.97886 5.36002 4.81892 8.33002C3.16953 9 2 10.61 2 12.5C2 14.99 4.00925 17 6.49831 17H12.0224C12.275 14.1967 14.6309 12 17.5 12C19.0688 12 20.4841 12.6568 21.4861 13.7104C22.4438 11.6249 22.0628 9.08039 20.3431 7.35998C19.2435 6.26002 17.804 5.70998 16.3546 5.70998C16.0047 5.70998 15.6649 5.73998 15.325 5.79998C14.3454 4.11998 12.536 3 10.4568 3H10.4468ZM17.5 13C15.0147 13 13 15.0147 13 17.5C13 19.9853 15.0147 22 17.5 22C19.9852 22 22 19.9853 22 17.5C22 15.0147 19.9852 13 17.5 13ZM16.6161 17.5L14.8081 15.692L15.692 14.8081L17.5 16.6162L19.3081 14.8081L20.192 15.692L18.3839 17.5L20.192 19.3081L19.3081 20.192L17.5 18.384L15.692 20.192L14.8081 19.3081L16.6161 17.5Z" fill="#FF0000"/>
</svg>
